# File created by Blade
# Date/Time:  Wed Apr 08 17:39:35 2015
# Frame Rate: 120.000 fps
#------------------------------------------------------
:FULLY-SPECIFIED
:DEGREES
3661
root 8.669123 37.761967 -0.435802 188.515880 -41.731236 -512.028726
Spine -15.194293 -5.912731 5.184064
Head 37.588645 -29.973048 16.677742
LeftShoulder -6.918219 19.895988 18.220108
LeftArm 19.104611 18.211560 -73.196882
LeftForeArm 15.220285 0.000000 25.758994
LeftHand -12.597249 0.000000 -10.986625
LeftHandThumb1 -26.253704 0.000000 33.147579
RightShoulder -40.588518 -48.297251 22.961461
RightArm 47.946156 -7.540142 59.907005
RightForeArm 11.202941 -0.000000 10.615821
RightHand 0.591311 -0.000000 11.148909
RightHandThumb1 -24.326973 -0.000000 -32.862282
LeftUpLeg -34.290991 26.591337 -0.253436
LeftLeg 10.217736 -0.000000 -0.000000
LeftFoot -10.984530 7.849093 -6.883775
LeftToeBase 10.919538 -0.000000 -0.000000
RightUpLeg -59.959550 -3.273169 17.898569
RightLeg 117.570074 -0.000000 -0.000000
RightFoot -0.725873 11.698923 24.778834
RightToeBase -4.002693 -0.000000 0.000000
3662
root 8.664497 37.758236 -0.433981 188.490981 -41.662937 -512.033899
Spine -15.139606 -6.003229 5.187039
Head 37.624687 -29.951225 16.606036
LeftShoulder -6.907655 19.912689 18.210815
LeftArm 19.012197 18.151461 -73.248449
LeftForeArm 15.151820 0.000000 25.612060
LeftHand -12.596625 -0.000000 -10.960950
LeftHandThumb1 -26.253704 0.000000 33.147579
RightShoulder -40.515069 -48.289504 22.874879
RightArm 47.842202 -7.213506 60.189498
RightForeArm 11.179756 -0.000000 10.751842
RightHand 0.604766 -0.000000 10.451074
RightHandThumb1 -24.326973 -0.000000 -32.862282
LeftUpLeg -34.165713 26.488484 -0.201000
LeftLeg 10.083061 -0.000000 -0.000000
LeftFoot -10.757581 8.182649 -6.368680
LeftToeBase 10.320320 -0.000000 -0.000000
RightUpLeg -60.016387 -3.235282 18.097198
RightLeg 116.963523 -0.000000 -0.000000
RightFoot -3.205281 10.671929 23.183067
RightToeBase -4.677846 -0.000000 0.000000
3663
root 8.659644 37.754263 -0.430648 188.486384 -41.593798 -512.044960
Spine -15.096006 -6.068133 5.191722
Head 37.635252 -29.936131 16.546056
LeftShoulder -6.887799 19.927307 18.189852
LeftArm 18.950979 18.229476 -73.209394
LeftForeArm 15.011454 0.000000 25.508945
LeftHand -12.671141 -0.000000 -10.875326
LeftHandThumb1 -26.253704 0.000000 33.147579
RightShoulder -40.553459 -48.271489 22.878169
RightArm 47.814216 -6.914591 60.390880
RightForeArm 11.143447 -0.000000 10.808102
RightHand 0.978491 -0.000000 9.756964
RightHandThumb1 -24.326973 -0.000000 -32.862282
LeftUpLeg -34.084934 26.475627 -0.212498
LeftLeg 9.968186 -0.000000 -0.000000
LeftFoot -10.713603 8.378447 -6.150499
LeftToeBase 10.214743 -0.000000 -0.000000
RightUpLeg -60.081212 -3.175312 18.190149
RightLeg 116.344596 -0.000000 -0.000000
RightFoot -5.119905 9.650443 22.436808
RightToeBase -5.950142 -0.000000 0.000000
3664
root 8.655300 37.751002 -0.425508 188.491638 -41.540110 -512.061919
Spine -15.048022 -6.129313 5.187132
Head 37.626008 -29.963643 16.493531
LeftShoulder -6.857134 19.893008 18.188088
LeftArm 18.893003 18.286624 -73.215298
LeftForeArm 14.930301 0.000000 25.317898
LeftHand -12.662198 -0.000000 -10.880012
LeftHandThumb1 -26.253704 0.000000 33.147579
RightShoulder -40.617128 -48.235904 22.900668
RightArm 47.792772 -6.624996 60.585720
RightForeArm 11.149311 0.000000 10.788945
RightHand 1.468645 -0.000000 9.253704
RightHandThumb1 -24.326973 -0.000000 -32.862282
LeftUpLeg -34.026276 26.510240 -0.259087
LeftLeg 9.854396 -0.000000 -0.000000
LeftFoot -10.686344 8.486192 -6.020846
LeftToeBase 10.189018 -0.000000 -0.000000
RightUpLeg -60.180626 -3.087252 18.207705
RightLeg 115.739624 -0.000000 -0.000000
RightFoot -6.680064 8.467877 21.845070
RightToeBase -7.392281 -0.000000 0.000000
3665
root 8.651531 37.748166 -0.420769 188.490359 -41.489779 -512.072849
Spine -14.995487 -6.203426 5.186179
Head 37.612438 -29.980832 16.458885
LeftShoulder -6.837204 19.864441 18.193155
LeftArm 18.839503 18.366015 -73.213656
LeftForeArm 14.909473 -0.000000 25.174107
LeftHand -12.601974 -0.000000 -10.957109
LeftHandThumb1 -26.253704 0.000000 33.147579
RightShoulder -40.652782 -48.237439 22.941474
RightArm 47.776509 -6.345694 60.736022
RightForeArm 11.085231 -0.000000 10.903035
RightHand 1.643934 -0.000000 8.449559
RightHandThumb1 -24.326973 -0.000000 -32.862282
LeftUpLeg -33.992840 26.636846 -0.349827
LeftLeg 9.752550 -0.000000 -0.000000
LeftFoot -10.669968 8.458339 -5.912890
LeftToeBase 10.230268 -0.000000 -0.000000
RightUpLeg -60.373058 -2.953870 18.219039
RightLeg 115.195356 -0.000000 -0.000000
RightFoot -7.896762 6.862734 20.984569
RightToeBase -7.722887 -0.000000 0.000000
